<?xml version="1.0" encoding="utf-8"?>
<!-- Generator: Adobe Illustrator 23.0.3, SVG Export Plug-In . SVG Version: 6.00 Build 0)  -->
<svg version="1.1" id="レイヤー_1" xmlns="http://www.w3.org/2000/svg" xmlns:xlink="http://www.w3.org/1999/xlink" x="0px"
	 y="0px" viewBox="0 0 181 40" style="enable-background:new 0 0 181 40;" xml:space="preserve">
<style type="text/css">
	.st0{fill:#FFFFFF;}
</style>
<g>
	<g>
		<path class="st0" d="M13.26,3.69c0.85,0,1.54,0.69,1.54,1.54s-0.69,1.54-1.54,1.54s-1.54-0.69-1.54-1.54S12.41,3.69,13.26,3.69
			 M13.26,2.66c-1.42,0-2.57,1.15-2.57,2.57s1.15,2.57,2.57,2.57s2.57-1.15,2.57-2.57S14.68,2.66,13.26,2.66L13.26,2.66z"/>
		<path class="st0" d="M23.96,29.36c0.85,0,1.54,0.69,1.54,1.54c0,0.85-0.69,1.54-1.54,1.54c-0.85,0-1.54-0.69-1.54-1.54
			C22.42,30.05,23.11,29.36,23.96,29.36 M23.96,28.33c-1.42,0-2.57,1.15-2.57,2.57c0,1.42,1.15,2.57,2.57,2.57
			c1.42,0,2.57-1.15,2.57-2.57C26.53,29.48,25.38,28.33,23.96,28.33L23.96,28.33z"/>
		<path class="st0" d="M34.66,3.69c0.85,0,1.54,0.69,1.54,1.54s-0.69,1.54-1.54,1.54s-1.54-0.69-1.54-1.54S33.81,3.69,34.66,3.69
			 M34.66,2.66c-1.42,0-2.57,1.15-2.57,2.57s1.15,2.57,2.57,2.57c1.42,0,2.57-1.15,2.57-2.57S36.07,2.66,34.66,2.66L34.66,2.66z"/>
		<path class="st0" d="M2.57,32.1c0.85,0,1.54,0.69,1.54,1.54c0,0.85-0.69,1.54-1.54,1.54s-1.54-0.69-1.54-1.54
			C1.03,32.79,1.72,32.1,2.57,32.1 M2.57,31.07C1.15,31.07,0,32.22,0,33.64c0,1.42,1.15,2.57,2.57,2.57s2.57-1.15,2.57-2.57
			C5.13,32.22,3.98,31.07,2.57,31.07L2.57,31.07z"/>
		<path class="st0" d="M45.35,32.1c0.85,0,1.54,0.69,1.54,1.54c0,0.85-0.69,1.54-1.54,1.54c-0.85,0-1.54-0.69-1.54-1.54
			C43.81,32.79,44.5,32.1,45.35,32.1 M45.35,31.07c-1.42,0-2.57,1.15-2.57,2.57c0,1.42,1.15,2.57,2.57,2.57
			c1.42,0,2.57-1.15,2.57-2.57C47.92,32.22,46.77,31.07,45.35,31.07L45.35,31.07z"/>
		<path class="st0" d="M44.95,31.1L36.02,7.4c-0.29,0.18-0.61,0.31-0.96,0.36l8.92,23.71C44.27,31.28,44.6,31.16,44.95,31.1z"/>
		<path class="st0" d="M3.95,31.47l8.92-23.71c-0.35-0.05-0.67-0.18-0.96-0.36l-8.92,23.7C3.34,31.16,3.66,31.29,3.95,31.47z"/>
		<path class="st0" d="M29.5,18.92l4.66-11.18c-0.35-0.07-0.67-0.2-0.95-0.4L28.69,18.2l-3.93-3.48l8.38-7.42
			c-0.28-0.2-0.51-0.46-0.69-0.76l-8.47,7.5l-8.5-7.53c-0.17,0.3-0.41,0.56-0.68,0.77l8.41,7.44l-3.97,3.51L14.72,7.34
			c-0.28,0.19-0.6,0.33-0.95,0.4l4.66,11.21L4.14,31.61c0.27,0.21,0.5,0.47,0.67,0.78l14.04-12.43l3.67,8.82
			c0.28-0.19,0.6-0.33,0.95-0.39l-3.8-9.14l4.32-3.83l4.29,3.8l-3.82,9.18c0.35,0.07,0.67,0.2,0.95,0.39l3.69-8.85l14.04,12.43
			c0.17-0.3,0.41-0.56,0.68-0.77L29.5,18.92z"/>
	</g>
	<g>
		<path class="st0" d="M62.32,0.23h1.14l6.51,9.6l6.51-9.6h1.14v16.22h-1.21V2.36l-6.42,9.34H69.9l-6.42-9.34v14.09h-1.16V0.23z"/>
		<path class="st0" d="M83.05,0.23h11.54v1.11H84.26v6.37h9.29v1.11h-9.29v6.51h10.45v1.11H83.05V0.23z"/>
		<path class="st0" d="M98.67,0.23h1.14l6.51,9.6l6.51-9.6h1.14v16.22h-1.21V2.36l-6.42,9.34h-0.09l-6.42-9.34v14.09h-1.16V0.23z"/>
		<path class="st0" d="M119.41,0.23h6.7c1.83,0,3.31,0.53,4.22,1.44c0.67,0.67,1.04,1.53,1.04,2.55v0.05c0,2.2-1.44,3.31-2.76,3.85
			c1.95,0.51,3.66,1.62,3.66,3.87v0.05c0,2.71-2.32,4.43-5.82,4.43h-7.05V0.23z M130.14,4.33c0-1.78-1.46-2.99-4.06-2.99h-5.47v6.37
			h5.35c2.43,0,4.17-1.18,4.17-3.34V4.33z M126.1,8.83h-5.49v6.51h5.89c2.78,0,4.54-1.27,4.54-3.31v-0.05
			C131.04,9.99,129.3,8.83,126.1,8.83z"/>
		<path class="st0" d="M136.75,0.23h11.54v1.11h-10.34v6.37h9.29v1.11h-9.29v6.51h10.45v1.11h-11.66V0.23z"/>
		<path class="st0" d="M152.38,0.23h6.81c1.99,0,3.59,0.63,4.57,1.6c0.76,0.77,1.23,1.85,1.23,3.01v0.05c0,2.71-2.02,4.26-4.75,4.64
			l5.35,6.93h-1.53l-5.17-6.72h-5.31v6.72h-1.21V0.23z M159.05,8.65c2.71,0,4.73-1.37,4.73-3.71V4.89c0-2.18-1.71-3.55-4.66-3.55
			h-5.54v7.3H159.05z"/>
		<path class="st0" d="M168.34,14.09l0.79-0.9c1.78,1.65,3.43,2.41,5.82,2.41c2.43,0,4.1-1.37,4.1-3.22v-0.05
			c0-1.72-0.9-2.71-4.59-3.45c-3.89-0.79-5.47-2.11-5.47-4.57V4.26c0-2.41,2.2-4.26,5.21-4.26c2.36,0,3.92,0.65,5.56,1.97
			l-0.77,0.95c-1.53-1.32-3.06-1.83-4.84-1.83c-2.39,0-3.96,1.37-3.96,3.06V4.2c0,1.72,0.88,2.76,4.73,3.55
			c3.75,0.76,5.33,2.11,5.33,4.47v0.05c0,2.62-2.25,4.43-5.38,4.43C172.28,16.69,170.29,15.83,168.34,14.09z"/>
		<path class="st0" d="M62.32,23.38h1.14l11.19,14.12V23.38h1.16V39.6h-0.9L63.48,25.18V39.6h-1.16V23.38z"/>
		<path class="st0" d="M78.33,31.53v-0.05c0-4.43,3.27-8.39,8.18-8.39c4.91,0,8.14,3.92,8.14,8.34v0.05c0,4.43-3.27,8.39-8.18,8.39
			C81.55,39.88,78.33,35.96,78.33,31.53z M93.4,31.53v-0.05c0-4.01-2.92-7.3-6.93-7.3s-6.88,3.25-6.88,7.25v0.05
			c0,4.01,2.92,7.3,6.93,7.3S93.4,35.54,93.4,31.53z"/>
		<path class="st0" d="M95.98,23.38h1.34l5.1,14.44l4.75-14.49h0.93l4.75,14.49l5.1-14.44h1.25l-5.89,16.34h-0.97l-4.75-14.09
			l-4.75,14.09h-0.97L95.98,23.38z"/>
		<path class="st0" d="M126.98,24.49h-5.66v-1.11h12.52v1.11h-5.66V39.6h-1.21V24.49z"/>
		<path class="st0" d="M136.54,23.38h11.54v1.11h-10.34v6.37h9.29v1.11h-9.29v6.51h10.45v1.11h-11.66V23.38z"/>
		<path class="st0" d="M150.05,31.53v-0.05c0-4.59,3.43-8.39,8.11-8.39c2.9,0,4.64,1.07,6.3,2.6l-0.86,0.88
			c-1.41-1.37-3.04-2.39-5.47-2.39c-3.89,0-6.84,3.18-6.84,7.25v0.05c0,4.1,2.99,7.3,6.86,7.3c2.34,0,3.94-0.9,5.59-2.53l0.81,0.79
			c-1.72,1.69-3.57,2.83-6.44,2.83C153.48,39.88,150.05,36.19,150.05,31.53z"/>
		<path class="st0" d="M167.22,23.38h1.21v7.51h10.38v-7.51h1.21V39.6h-1.21V32h-10.38v7.6h-1.21V23.38z"/>
	</g>
	<circle class="st0" cx="86.37" cy="31.48" r="3.57"/>
</g>
<g>
	<path d="M-363.12,66.87h1.14l6.51,9.6l6.51-9.6h1.14v16.22h-1.21V69l-6.42,9.34h-0.09l-6.42-9.34v14.09h-1.16V66.87z"/>
	<path d="M-342.38,66.87h11.54v1.11h-10.34v6.37h9.29v1.11h-9.29v6.51h10.45v1.11h-11.66V66.87z"/>
	<path d="M-326.76,66.87h1.14l6.51,9.6l6.51-9.6h1.14v16.22h-1.21V69l-6.42,9.34h-0.09L-325.6,69v14.09h-1.16V66.87z"/>
	<path d="M-306.03,66.87h6.7c1.83,0,3.31,0.53,4.22,1.44c0.67,0.67,1.04,1.53,1.04,2.55v0.05c0,2.2-1.44,3.31-2.76,3.85
		c1.95,0.51,3.66,1.62,3.66,3.87v0.05c0,2.71-2.32,4.43-5.82,4.43h-7.05V66.87z M-295.3,70.97c0-1.78-1.46-2.99-4.06-2.99h-5.47
		v6.37h5.35c2.43,0,4.17-1.18,4.17-3.34V70.97z M-299.33,75.47h-5.49v6.51h5.89c2.78,0,4.54-1.27,4.54-3.31v-0.05
		C-294.39,76.62-296.13,75.47-299.33,75.47z"/>
	<path d="M-288.68,66.87h11.54v1.11h-10.34v6.37h9.29v1.11h-9.29v6.51h10.45v1.11h-11.66V66.87z"/>
	<path d="M-273.06,66.87h6.81c1.99,0,3.59,0.63,4.57,1.6c0.76,0.77,1.23,1.85,1.23,3.01v0.05c0,2.71-2.02,4.26-4.75,4.64l5.35,6.93
		h-1.53l-5.17-6.72h-5.31v6.72h-1.21V66.87z M-266.38,75.28c2.71,0,4.73-1.37,4.73-3.71v-0.05c0-2.18-1.71-3.55-4.66-3.55h-5.54v7.3
		H-266.38z"/>
	<path d="M-257.09,80.73l0.79-0.9c1.78,1.65,3.43,2.41,5.82,2.41c2.43,0,4.1-1.37,4.1-3.22v-0.05c0-1.72-0.9-2.71-4.59-3.45
		c-3.89-0.79-5.47-2.11-5.47-4.57V70.9c0-2.41,2.2-4.26,5.21-4.26c2.36,0,3.92,0.65,5.56,1.97l-0.77,0.95
		c-1.53-1.32-3.06-1.83-4.84-1.83c-2.39,0-3.96,1.37-3.96,3.06v0.05c0,1.72,0.88,2.76,4.73,3.55c3.75,0.76,5.33,2.11,5.33,4.47v0.05
		c0,2.62-2.25,4.43-5.38,4.43C-253.15,83.32-255.14,82.47-257.09,80.73z"/>
	<path d="M-363.12,90.01h1.14l11.19,14.12V90.01h1.16v16.22h-0.9l-11.43-14.42v14.42h-1.16V90.01z"/>
	<path d="M-347.1,98.17v-0.05c0-4.43,3.27-8.39,8.18-8.39c4.91,0,8.14,3.92,8.14,8.34v0.05c0,4.43-3.27,8.39-8.18,8.39
		C-343.88,106.51-347.1,102.6-347.1,98.17z M-332.04,98.17v-0.05c0-4.01-2.92-7.3-6.93-7.3s-6.88,3.25-6.88,7.25v0.05
		c0,4.01,2.92,7.3,6.93,7.3S-332.04,102.18-332.04,98.17z"/>
	<path d="M-329.46,90.01h1.34l5.1,14.44l4.75-14.49h0.93l4.75,14.49l5.1-14.44h1.25l-5.89,16.34h-0.97l-4.75-14.09l-4.75,14.09
		h-0.97L-329.46,90.01z"/>
	<path d="M-298.46,91.12h-5.66v-1.11h12.52v1.11h-5.66v15.11h-1.21V91.12z"/>
	<path d="M-288.89,90.01h11.54v1.11h-10.34v6.37h9.29v1.11h-9.29v6.51h10.45v1.11h-11.66V90.01z"/>
	<path d="M-275.39,98.17v-0.05c0-4.59,3.43-8.39,8.11-8.39c2.9,0,4.64,1.07,6.3,2.6l-0.86,0.88c-1.41-1.37-3.04-2.39-5.47-2.39
		c-3.89,0-6.84,3.18-6.84,7.25v0.05c0,4.1,2.99,7.3,6.86,7.3c2.34,0,3.94-0.9,5.59-2.53l0.81,0.79c-1.72,1.69-3.57,2.83-6.44,2.83
		C-271.95,106.51-275.39,102.83-275.39,98.17z"/>
	<path d="M-258.21,90.01h1.21v7.51h10.38v-7.51h1.21v16.22h-1.21v-7.6h-10.38v7.6h-1.21V90.01z"/>
</g>
<g>
	<rect x="-409.18" y="85.55" transform="matrix(0.7071 0.7071 -0.7071 0.7071 -53.5829 303.1532)" width="32.9" height="2.69"/>
	<circle cx="-380.82" cy="99.02" r="4.62"/>
	<circle cx="-405.34" cy="99.02" r="4.62"/>
	<circle cx="-380.82" cy="74.21" r="4.62"/>
	<circle cx="-405.34" cy="74.21" r="4.62"/>
	<circle cx="-388.99" cy="90.75" r="4.02"/>
	<circle cx="-397.17" cy="82.48" r="3.38"/>
	<circle cx="-397.9" cy="91.49" r="2.48"/>
	<circle cx="-388.25" cy="81.74" r="2.48"/>
</g>
</svg>
